<mxfile host="app.diagrams.net" modified="2024-03-12T07:29:55.253Z" agent="Mozilla/5.0 (Windows NT 10.0; Win64; x64) AppleWebKit/537.36 (KHTML, like Gecko) Chrome/122.0.0.0 Safari/537.36" etag="l1WE3XWOrTrC1UJnXfpv" version="23.1.6" type="device">
  <diagram name="Page-1" id="9Q5xSDxnrushS_nsjPe1">
    <mxGraphModel dx="875" dy="474" grid="1" gridSize="10" guides="1" tooltips="1" connect="1" arrows="1" fold="1" page="1" pageScale="1" pageWidth="827" pageHeight="1169" math="0" shadow="0">
      <root>
        <mxCell id="0" />
        <mxCell id="1" parent="0" />
        <mxCell id="oTAd6p8XQbvf3maF5ruQ-18" value="" style="rounded=1;whiteSpace=wrap;html=1;" vertex="1" parent="1">
          <mxGeometry x="249" y="220" width="330" height="190" as="geometry" />
        </mxCell>
        <mxCell id="oTAd6p8XQbvf3maF5ruQ-10" style="edgeStyle=orthogonalEdgeStyle;rounded=0;orthogonalLoop=1;jettySize=auto;html=1;entryX=0;entryY=0.5;entryDx=0;entryDy=0;" edge="1" parent="1" source="oTAd6p8XQbvf3maF5ruQ-1" target="oTAd6p8XQbvf3maF5ruQ-3">
          <mxGeometry relative="1" as="geometry" />
        </mxCell>
        <mxCell id="oTAd6p8XQbvf3maF5ruQ-1" value="" style="shape=cylinder3;whiteSpace=wrap;html=1;boundedLbl=1;backgroundOutline=1;size=15;" vertex="1" parent="1">
          <mxGeometry x="120" y="270" width="90" height="100" as="geometry" />
        </mxCell>
        <mxCell id="oTAd6p8XQbvf3maF5ruQ-2" value="Login System:&lt;br&gt;&lt;span style=&quot;white-space: pre;&quot;&gt;&#x9;&lt;/span&gt;- username&lt;br&gt;&lt;span style=&quot;white-space: pre;&quot;&gt;&#x9;&lt;/span&gt;- password&lt;br&gt;&lt;span style=&quot;white-space: pre;&quot;&gt;&#x9;&lt;/span&gt;- email" style="text;html=1;align=left;verticalAlign=middle;whiteSpace=wrap;rounded=0;" vertex="1" parent="1">
          <mxGeometry x="120" y="400" width="100" height="30" as="geometry" />
        </mxCell>
        <mxCell id="oTAd6p8XQbvf3maF5ruQ-11" style="edgeStyle=orthogonalEdgeStyle;rounded=0;orthogonalLoop=1;jettySize=auto;html=1;entryX=0;entryY=0.5;entryDx=0;entryDy=0;" edge="1" parent="1" source="oTAd6p8XQbvf3maF5ruQ-3" target="oTAd6p8XQbvf3maF5ruQ-4">
          <mxGeometry relative="1" as="geometry" />
        </mxCell>
        <mxCell id="oTAd6p8XQbvf3maF5ruQ-3" value="Node js + Express&amp;nbsp;&lt;br&gt;(Backend API)" style="rounded=0;whiteSpace=wrap;html=1;" vertex="1" parent="1">
          <mxGeometry x="270" y="270" width="120" height="100" as="geometry" />
        </mxCell>
        <mxCell id="oTAd6p8XQbvf3maF5ruQ-4" value="Frontend" style="rounded=0;whiteSpace=wrap;html=1;" vertex="1" parent="1">
          <mxGeometry x="450" y="270" width="100" height="100" as="geometry" />
        </mxCell>
        <mxCell id="oTAd6p8XQbvf3maF5ruQ-5" value="" style="ellipse;shape=cloud;whiteSpace=wrap;html=1;" vertex="1" parent="1">
          <mxGeometry x="600" y="280" width="120" height="80" as="geometry" />
        </mxCell>
        <mxCell id="oTAd6p8XQbvf3maF5ruQ-6" value="Internet" style="text;html=1;align=center;verticalAlign=middle;whiteSpace=wrap;rounded=0;" vertex="1" parent="1">
          <mxGeometry x="630" y="305" width="60" height="30" as="geometry" />
        </mxCell>
        <mxCell id="oTAd6p8XQbvf3maF5ruQ-8" value="MySQL" style="text;html=1;align=center;verticalAlign=middle;whiteSpace=wrap;rounded=0;" vertex="1" parent="1">
          <mxGeometry x="135" y="305" width="60" height="30" as="geometry" />
        </mxCell>
        <mxCell id="oTAd6p8XQbvf3maF5ruQ-13" style="edgeStyle=orthogonalEdgeStyle;rounded=0;orthogonalLoop=1;jettySize=auto;html=1;entryX=0.108;entryY=0.5;entryDx=0;entryDy=0;entryPerimeter=0;" edge="1" parent="1" source="oTAd6p8XQbvf3maF5ruQ-4" target="oTAd6p8XQbvf3maF5ruQ-5">
          <mxGeometry relative="1" as="geometry" />
        </mxCell>
        <mxCell id="oTAd6p8XQbvf3maF5ruQ-14" value="MySQL" style="shape=cylinder3;whiteSpace=wrap;html=1;boundedLbl=1;backgroundOutline=1;size=15;" vertex="1" parent="1">
          <mxGeometry x="120" y="500" width="80" height="90" as="geometry" />
        </mxCell>
        <mxCell id="oTAd6p8XQbvf3maF5ruQ-15" value="User Statistic :&lt;br&gt;- id_pelanggan&lt;br&gt;- jumlah_cuci_sepatu&lt;div&gt;- no_pesanan&lt;/div&gt;&lt;div&gt;- alamat pengambilan&amp;nbsp;&lt;/div&gt;&lt;div&gt;- alamat penjemputan&lt;/div&gt;&lt;div&gt;- status sepatu&lt;/div&gt;" style="text;html=1;align=left;verticalAlign=middle;whiteSpace=wrap;rounded=0;" vertex="1" parent="1">
          <mxGeometry x="120" y="640" width="200" height="30" as="geometry" />
        </mxCell>
        <mxCell id="oTAd6p8XQbvf3maF5ruQ-17" style="edgeStyle=orthogonalEdgeStyle;rounded=0;orthogonalLoop=1;jettySize=auto;html=1;entryX=0.192;entryY=1.027;entryDx=0;entryDy=0;entryPerimeter=0;" edge="1" parent="1" source="oTAd6p8XQbvf3maF5ruQ-14" target="oTAd6p8XQbvf3maF5ruQ-3">
          <mxGeometry relative="1" as="geometry" />
        </mxCell>
        <mxCell id="oTAd6p8XQbvf3maF5ruQ-19" value="Hostinger?" style="text;html=1;align=center;verticalAlign=middle;whiteSpace=wrap;rounded=0;" vertex="1" parent="1">
          <mxGeometry x="260" y="230" width="70" height="30" as="geometry" />
        </mxCell>
      </root>
    </mxGraphModel>
  </diagram>
</mxfile>
